<svg xmlns="http://www.w3.org/2000/svg" viewBox="0 0 640 640" width="64px" height="64px" xmlns:xlink="http://www.w3.org/1999/xlink">
 <symbol id="paw">
  <metadata id="CorelCorpID_0Corel-Layer"/>
  <path d="M216.888 1.93703c48.9691,0 88.6901,60.8748 88.6901,135.935 0,75.06 -39.721,135.923 -88.6901,135.923 -48.9809,0 -88.6901,-60.863 -88.6901,-135.923 0,-75.06 39.7091,-135.935 88.6901,-135.935zm112.738 329.047c103.867,0.212601 116.753,69.0008 204.333,186.77 43.6305,85.6664 -13.0395,139.679 -110.151,116.541 -44.0438,-22.453 -75.06,-30.3901 -106.135,-29.3035 -53.8589,1.88979 -67.4418,37.4178 -130.124,34.8902 -48.3549,-1.31104 -70.0875,-21.5554 -74.3159,-52.4298 -4.51187,-32.8114 8.12608,-53.5637 23.5278,-80.7057 59.8826,-105.592 121.844,-188.979 192.865,-175.762zm-284.07 -127.466c-36.6028,14.4805 -48.2959,71.7174 -26.1027,127.82 22.1932,56.1031 69.8749,89.8476 106.478,75.3671 36.6028,-14.4687 48.2959,-71.7174 26.1027,-127.809 -22.1932,-56.1031 -69.8749,-89.8594 -106.478,-75.3789zm548.889 0c36.6028,14.4805 48.2959,71.7174 26.1027,127.82 -22.1932,56.1031 -69.8749,89.8476 -106.478,75.3671 -36.6028,-14.4687 -48.2959,-71.7174 -26.1027,-127.809 22.1932,-56.1031 69.8749,-89.8594 106.478,-75.3789zm-172.916 -203.53c48.9691,0 88.6901,60.8748 88.6901,135.935 0,75.06 -39.721,135.923 -88.6901,135.923 -48.9809,0 -88.6901,-60.863 -88.6901,-135.923 0,-75.06 39.7091,-135.935 88.6901,-135.935z"/>
 </symbol>
</svg>

